<svg xmlns="http://www.w3.org/2000/svg" viewBox="0 0 65.89 62.84"><defs><style>.cls-1{fill:#00b1d6;}.cls-2{fill:#fff;}</style></defs><title>Asset 41</title><g id="Layer_2" data-name="Layer 2"><g id="Layer_1-2" data-name="Layer 1"><path class="cls-1" d="M56.88,30.2a7.64,7.64,0,0,0,6.54-6.69H51Z"/><path class="cls-1" d="M2.47,23.51A7.64,7.64,0,0,0,9,30.2l5.87-6.69Z"/><polygon class="cls-1" points="24.09 52.6 27.46 47.15 19.08 32.59 27.06 23.51 17.15 23.51 11.35 30.2 12.77 34.61 20.72 47.78 18.07 52.19 23.45 61.66 25.83 55.31 24.09 52.6"/><path class="cls-1" d="M42.13,23.51,40.76,25.7l6.05,6.89L38.43,47.15,41.8,52.6l-2.46,3.82h-9.7l-4.29,6.42H41.77l6-10.65-2.65-4.41,7.95-13.17L54.6,30.2l-5.87-6.69Z"/><path class="cls-1" d="M10.41,21.94H32.22l3.63-8H9.94A8,8,0,0,1,8.36,0a11.16,11.16,0,0,0,2.05,21.94Z"/><path class="cls-1" d="M57.53,0A8,8,0,0,1,56,13.93h-8l-4.81,8H55.48A11.16,11.16,0,0,0,57.53,0Z"/><polygon class="cls-2" points="37.35 13.93 25.95 39.06 32.96 38.9 24.57 62.1 43.1 33.54 34.61 33.73 46.33 13.93 37.35 13.93"/></g></g></svg>