<svg xmlns="http://www.w3.org/2000/svg" viewBox="0 0 301.08 188.44"><defs><style>.cls-1,.cls-2{fill:#00b2d7;}.cls-2{opacity:0.31;}</style></defs><title>Asset 111</title><g id="Layer_2" data-name="Layer 2"><g id="Layer_1-2" data-name="Layer 1"><path d="M0,0H42V12.34H27.77V86.39H14.19v-74H0Z"/><path d="M83.43,86.39H69.73L67.38,70.72H50.72L48.38,86.39H35.91L49.73,0H69.61ZM52.45,59H65.53L59,15.3Z"/><path d="M99,0V66.64c0,6.17,2.71,8.4,7,8.4s7-2.23,7-8.4V0h12.83V65.78c0,13.82-6.91,21.72-20.24,21.72S85.4,79.6,85.4,65.78V0Z"/><path d="M159.82,86.39c-.74-2.22-1.23-3.58-1.23-10.61V62.2c0-8-2.72-11-8.89-11H145V86.39H131.43V0h20.49C166,0,172,6.54,172,19.87v6.79c0,8.88-2.84,14.68-8.89,17.52,6.79,2.84,9,9.38,9,18.39V75.9c0,4.2.12,7.28,1.48,10.49ZM145,12.34V38.87h5.31c5.06,0,8.14-2.22,8.14-9.13V21.23c0-6.17-2.1-8.89-6.91-8.89Z"/><path d="M177.34,0h13.58V86.39H177.34Z"/><path d="M209.18,23.82V86.39H197V0h17l13.94,51.71V0H240V86.39H226.09Z"/><path d="M259.66,36.41h18.63V48.75H259.66v25.3h23.45V86.39h-37V0h37V12.34H259.66Z"/><path d="M17.52,134.65H35.05V147H17.52v35.67H3.94V96.27H39.86v12.34H17.52Z"/><path d="M71.08,182.66c-.73-2.22-1.23-3.58-1.23-10.62V158.47c0-8-2.72-11-8.89-11H56.27v35.18H42.7V96.27H63.19c14.06,0,20.11,6.54,20.11,19.86v6.79c0,8.89-2.84,14.69-8.89,17.53,6.79,2.84,9,9.38,9,18.39v13.33c0,4.19.13,7.28,1.49,10.49Zm-14.81-74v26.53h5.31c5.06,0,8.14-2.22,8.14-9.13v-8.52c0-6.17-2.09-8.88-6.9-8.88Z"/><path d="M102.18,132.67h18.64V145H102.18v25.31h23.45v12.34h-37V96.27h37v12.34H102.18Z"/><path d="M143.9,132.67h18.63V145H143.9v25.31h23.45v12.34h-37V96.27h37v12.34H143.9Z"/><path class="cls-1" d="M266.2,141.23c6.89,2.09,13.63-.78,17.62-6.78L261,124Z"/><path class="cls-1" d="M171.94,83.21c-1.93,6.94.3,13.92,6.38,17.77l16.41-7.33Z"/><polygon class="cls-1" points="187.17 154.78 197.95 147.61 194.8 113.83 217.07 103.88 198.89 95.55 182.62 102.95 181.53 112.24 185.03 143.1 176.47 148.97 178.38 170.88 188.1 161.21 187.17 154.78"/><path class="cls-1" d="M244.73,116.55l-4.35,2.86,5.32,17.74-27.62,19.68,1.6,12.84L212,174.6l-17.82-8.16-13.28,8.2L211,188.44,231.08,174l-1.15-10.33,25.65-17.5L262,139.3l-5.15-17.2Z"/><path class="cls-1" d="M187.84,87,198,91.66l.43.19,3.89,1.79,24,11,.78.36.81.36,13.38-11.64-19.52-8.94L217.86,83l-13.11-6-11-5.06A16.19,16.19,0,0,1,202.52,45a22.53,22.53,0,0,0-14.68,42Z"/><path class="cls-1" d="M292.77,86.34a16.19,16.19,0,0,1-14.61,24.25l-14.73-6.75-15.56,10.64,7.77,3.56,4.17,1.92,2.62,1.19,8.14,3.73a22.53,22.53,0,0,0,22.2-38.54Z"/><polygon class="cls-1" points="244.02 94.95 201.98 131.49 214.98 137.09 180.08 172.62 238.09 135.77 222.35 128.98 260.5 102.5 244.02 94.95"/><path class="cls-2" d="M178.32,101l16.41-7.33L171.94,83.21C170,90.15,172.24,97.13,178.32,101Z"/><path class="cls-2" d="M217.07,103.88l-18.18-8.33L182.62,103l-1.09,9.29,1.64,14.44q6.36.5,12.88.6l-1.25-13.45Z"/><path class="cls-1" d="M240.38,119.41l1.4,4.65q7.25-1.05,14.29-2.32l-11.34-5.19Z"/><path class="cls-2" d="M217.86,83l-13.11-6-11-5.06A16.19,16.19,0,0,1,202.52,45a22.53,22.53,0,0,0-14.68,42L198,91.66l.43.19,3.89,1.79,24,11,.78.36.81.36,13.38-11.64-19.52-8.94Z"/><path class="cls-1" d="M292.77,86.34a16.19,16.19,0,0,1-14.61,24.25l-14.73-6.75-15.56,10.64,7.77,3.56,4.17,1.92,1.7.77c13.89-2.68,26.88-5.86,38.09-8.94A22.51,22.51,0,0,0,292.77,86.34Z"/><path class="cls-1" d="M260.5,102.5,244,95,207.2,127c6.43-.39,14-1,20.34-1.57Z"/></g></g></svg>