<svg xmlns="http://www.w3.org/2000/svg" viewBox="0 0 337.94 194.26"><defs><style>.cls-1{fill:#00b2d7;}</style></defs><title>Asset 121</title><g id="Layer_2" data-name="Layer 2"><g id="Layer_1-2" data-name="Layer 1"><path d="M24.07,81,34.43,10.5H46.89L33.57,96.89H13.33L0,10.5H13.7Z"/><path d="M63.06,46.91H81.7V59.25H63.06v25.3H86.51V96.89h-37V10.5h37V22.84H63.06Z"/><path d="M111.57,48.76h19V76.15c0,13.83-6.91,21.72-20.24,21.72S90.09,90,90.09,76.15V31.23c0-13.82,6.91-21.72,20.24-21.72s20.24,7.9,20.24,21.72v8.39H117.74V30.37c0-6.18-2.72-8.52-7-8.52s-7,2.34-7,8.52V77c0,6.17,2.71,8.39,7,8.39s7-2.22,7-8.39V61.1h-6.17Z"/><path d="M179.45,96.89h-13.7L163.4,81.21H146.74L144.4,96.89H131.93L145.75,10.5h19.87Zm-31-27.4h13.08L155,25.8Z"/><path d="M194.13,34.32V96.89H181.91V10.5h17l13.95,51.71V10.5H225V96.89H211Z"/><path d="M43.81,128.11v11.23c0,13.83-6.67,21.35-20.24,21.35H17.15v32.46H3.58V106.76h20C37.14,106.76,43.81,114.29,43.81,128.11Zm-26.66-9v29.25h6.42c4.32,0,6.66-2,6.66-8.14v-13c0-6.17-2.34-8.15-6.66-8.15Z"/><path d="M75.4,193.15c-.74-2.22-1.23-3.58-1.23-10.61V169c0-8-2.72-11-8.89-11H60.59v35.17H47V106.76H67.51c14.06,0,20.11,6.54,20.11,19.87v6.79c0,8.88-2.84,14.69-8.89,17.52,6.79,2.84,9,9.38,9,18.39v13.33c0,4.2.13,7.28,1.48,10.49ZM60.59,119.1v26.54H65.9c5.06,0,8.14-2.22,8.14-9.14V128c0-6.17-2.09-8.89-6.91-8.89Z"/><path d="M91.82,127.49c0-13.82,7.28-21.72,20.61-21.72S133,113.67,133,127.49v44.93c0,13.82-7.28,21.72-20.61,21.72s-20.61-7.9-20.61-21.72Zm13.57,45.79c0,6.17,2.72,8.52,7,8.52s7-2.35,7-8.52V126.63c0-6.17-2.71-8.52-7-8.52s-7,2.35-7,8.52Z"/><path d="M138.1,106.76h21.47c13.58,0,20.24,7.53,20.24,21.35V171.8c0,13.82-6.66,21.35-20.24,21.35H138.1Zm13.57,12.34v61.71h7.65c4.32,0,6.91-2.22,6.91-8.39V127.49c0-6.16-2.59-8.39-6.91-8.39Z"/><path d="M197.7,106.76v66.65c0,6.17,2.72,8.39,7,8.39s7-2.22,7-8.39V106.76h12.84v65.78c0,13.83-6.91,21.72-20.24,21.72s-20.24-7.89-20.24-21.72V106.76Z"/><path d="M269.53,160.94v11.48c0,13.82-6.91,21.72-20.24,21.72s-20.24-7.9-20.24-21.72V127.49c0-13.82,6.91-21.72,20.24-21.72s20.24,7.9,20.24,21.72v8.4H256.7v-9.26c0-6.17-2.72-8.52-7-8.52s-7,2.35-7,8.52v46.65c0,6.17,2.71,8.4,7,8.4s7-2.23,7-8.4V160.94Z"/><path d="M270.15,106.76h42V119.1H297.92v74.05H284.34V119.1H270.15Z"/><path class="cls-1" d="M332.83,21.12a1.64,1.64,0,0,0-1.91-1.07c-7.3,1.56-40.83,10-52.66,35.4-10.09,21.63-1.06,44,2.83,51.91a.63.63,0,0,0,1.17-.1c13.09-43.7,35.37-63.12,35.37-63.12S300.92,70.9,287,109.61a.64.64,0,0,0,.71.84c8.43-1.7,31.22-9.15,42.73-29.09C344.28,57.43,335.16,27.76,332.83,21.12Zm-90.38,10s9.27,28.53,28.88,64.57a.38.38,0,0,0,.7-.28c-3.13-11.28-4.69-26.66,2.36-41.77a50.84,50.84,0,0,1,7-11,2.79,2.79,0,0,0,.31-3.13C268,14.08,238.73,2.27,232.77.08a1.32,1.32,0,0,0-1.63.62c-3.52,6.51-22.23,43.79-8.11,74.07,11.87,25.47,39,34.09,48.78,36.46a.63.63,0,0,0,.67-1C243.1,65.7,242.45,31.12,242.45,31.12Z"/></g></g></svg>