<svg xmlns="http://www.w3.org/2000/svg" viewBox="0 0 815.93 451.17"><defs><style>.cls-1{fill:#333;}.cls-2{fill:#fff;}.cls-3{fill:#f2f2f2;}</style></defs><title>Asset 12popup-lables</title><g id="Layer_2" data-name="Layer 2"><g id="Layer_1-2" data-name="Layer 1"><rect class="cls-1" width="815.93" height="209.31" rx="32.22"/><rect class="cls-1" y="241.86" width="210.18" height="209.31" rx="32.22"/><rect class="cls-1" x="256.43" y="241.86" width="210.18" height="209.31" rx="32.22"/><path class="cls-2" d="M86.36,121.22V93.93H80.05v-7h15v34.29Z"/><path class="cls-2" d="M144.09,90.8a41.41,41.41,0,1,1-26-26V55.61A50.28,50.28,0,1,0,153.31,90.8Z"/><path class="cls-2" d="M141.58,67.32V57.68h-6.93v9.64h-9.58v6.93h9.58v9.64h6.93V74.25h9.64V67.32Z"/><path class="cls-2" d="M224.73,62.15a6.36,6.36,0,0,1,1.41,4.07,6.54,6.54,0,0,1-1,3.64,6.77,6.77,0,0,1-2.94,2.46,10.8,10.8,0,0,1-4.55.89H206.5V47.39h10.65a11.16,11.16,0,0,1,4.53.85,6.53,6.53,0,0,1,2.89,2.37,6.23,6.23,0,0,1,1,3.44,5.84,5.84,0,0,1-1.21,3.77A6.42,6.42,0,0,1,221.15,60,5.74,5.74,0,0,1,224.73,62.15Zm-13-4.11h4.73a4.32,4.32,0,0,0,2.85-.83,2.91,2.91,0,0,0,1-2.38,3,3,0,0,0-1-2.41,4.33,4.33,0,0,0-2.85-.85h-4.73Zm8.15,10.06a3.08,3.08,0,0,0,1.06-2.51A3.24,3.24,0,0,0,219.78,63a4.47,4.47,0,0,0-3-.94h-5.1V69h5.21A4.43,4.43,0,0,0,219.83,68.1Z"/><path class="cls-2" d="M249.62,52.72V73.21h-5.21V70.62a7,7,0,0,1-2.61,2.09,8.17,8.17,0,0,1-3.5.75,8.64,8.64,0,0,1-4.25-1,7.18,7.18,0,0,1-2.9-3,9.92,9.92,0,0,1-1.06-4.71v-12h5.18V64a5.32,5.32,0,0,0,1.22,3.75,4.32,4.32,0,0,0,3.33,1.31,4.37,4.37,0,0,0,3.37-1.31A5.32,5.32,0,0,0,244.41,64V52.72Z"/><path class="cls-2" d="M264.12,57h-3.59V73.21h-5.25V57H253V52.72h2.33v-1q0-3.76,2.14-5.54c1.43-1.19,3.59-1.74,6.48-1.67v4.37a3.84,3.84,0,0,0-2.63.62,3.18,3.18,0,0,0-.74,2.41v.85h3.59Z"/><path class="cls-2" d="M276.88,57h-3.59V73.21H268V57h-2.33V52.72H268v-1q0-3.76,2.14-5.54c1.43-1.19,3.59-1.74,6.47-1.67v4.37a3.83,3.83,0,0,0-2.62.62,3.14,3.14,0,0,0-.74,2.41v.85h3.59Z"/><path class="cls-2" d="M280.15,57.38a8.85,8.85,0,0,1,8.11-5,8.34,8.34,0,0,1,4,.92A8.19,8.19,0,0,1,295,55.64V52.72h5.22V73.21H295v-3a7.68,7.68,0,0,1-2.75,2.39,8.52,8.52,0,0,1-4,.94,8.78,8.78,0,0,1-4.72-1.33,9.25,9.25,0,0,1-3.36-3.76,12,12,0,0,1-1.24-5.56A11.8,11.8,0,0,1,280.15,57.38Zm14.14,2.35a5.34,5.34,0,0,0-7.36-2.09,5.36,5.36,0,0,0-2,2,6.5,6.5,0,0,0-.75,3.2,6.67,6.67,0,0,0,.75,3.23,5.49,5.49,0,0,0,2,2.13,5.13,5.13,0,0,0,2.65.74,5.35,5.35,0,0,0,2.7-.72,5.22,5.22,0,0,0,2-2.07,7.44,7.44,0,0,0,0-6.47Z"/><path class="cls-2" d="M310.49,45.84V73.21h-5.18V45.84Z"/><path class="cls-2" d="M319.37,72.23a9.5,9.5,0,0,1-3.72-3.72A11.13,11.13,0,0,1,314.3,63a10.89,10.89,0,0,1,1.39-5.55,9.52,9.52,0,0,1,3.79-3.71,11.62,11.62,0,0,1,10.72,0A9.59,9.59,0,0,1,334,57.41,10.89,10.89,0,0,1,335.38,63,10.67,10.67,0,0,1,334,68.51a9.87,9.87,0,0,1-3.84,3.72,11.26,11.26,0,0,1-5.42,1.31A10.81,10.81,0,0,1,319.37,72.23Zm8-3.89a4.9,4.9,0,0,0,2-2,6.83,6.83,0,0,0,.74-3.33,6.17,6.17,0,0,0-1.53-4.49,5.06,5.06,0,0,0-3.76-1.57,4.92,4.92,0,0,0-3.71,1.57,6.25,6.25,0,0,0-1.5,4.49A6.35,6.35,0,0,0,321,67.45,4.8,4.8,0,0,0,324.69,69,5.31,5.31,0,0,0,327.33,68.34Z"/><path class="cls-2" d="M366.89,64.52h-15A5.09,5.09,0,0,0,353.46,68a4.79,4.79,0,0,0,3.37,1.26,4.22,4.22,0,0,0,4.1-2.48h5.59a9.38,9.38,0,0,1-3.41,4.86,9.9,9.9,0,0,1-6.17,1.91,10.74,10.74,0,0,1-5.31-1.31A9.23,9.23,0,0,1,348,68.51,11.33,11.33,0,0,1,346.66,63,11.61,11.61,0,0,1,348,57.38a9,9,0,0,1,3.62-3.7,11.69,11.69,0,0,1,10.6,0,8.88,8.88,0,0,1,3.59,3.57A10.81,10.81,0,0,1,367,62.52,13.44,13.44,0,0,1,366.89,64.52ZM361.67,61a4.08,4.08,0,0,0-1.44-3.2,5.11,5.11,0,0,0-3.44-1.2,4.75,4.75,0,0,0-3.24,1.16A5.13,5.13,0,0,0,352,61Z"/><path class="cls-2" d="M388.07,54.73a8.86,8.86,0,0,1,2.26,6.46v12h-5.18V61.89a5.26,5.26,0,0,0-1.22-3.75,4.3,4.3,0,0,0-3.33-1.32,4.41,4.41,0,0,0-3.38,1.32A5.22,5.22,0,0,0,376,61.89V73.21H370.8V52.72H376v2.55a7.13,7.13,0,0,1,2.65-2.09,8.25,8.25,0,0,1,3.53-.76A7.88,7.88,0,0,1,388.07,54.73Z"/><path class="cls-2" d="M414.15,64.52h-15A5.09,5.09,0,0,0,400.72,68a4.79,4.79,0,0,0,3.37,1.26,4.22,4.22,0,0,0,4.1-2.48h5.59a9.38,9.38,0,0,1-3.41,4.86,9.9,9.9,0,0,1-6.17,1.91,10.77,10.77,0,0,1-5.31-1.31,9.36,9.36,0,0,1-3.66-3.72A11.44,11.44,0,0,1,393.92,63a11.61,11.61,0,0,1,1.29-5.58,9,9,0,0,1,3.63-3.7,11.67,11.67,0,0,1,10.59,0A8.88,8.88,0,0,1,413,57.21a10.81,10.81,0,0,1,1.27,5.31A13.44,13.44,0,0,1,414.15,64.52ZM408.93,61a4.08,4.08,0,0,0-1.44-3.2,5.11,5.11,0,0,0-3.44-1.2,4.75,4.75,0,0,0-3.24,1.16,5.13,5.13,0,0,0-1.6,3.24Z"/><path class="cls-2" d="M425.85,53.35a7.21,7.21,0,0,1,3.68-.93v5.44h-1.37A5.27,5.27,0,0,0,424.48,59c-.82.77-1.24,2.1-1.24,4V73.21h-5.17V52.72h5.17V55.9A7.24,7.24,0,0,1,425.85,53.35Z"/><path class="cls-2" d="M445.06,53.29a7.53,7.53,0,0,1,2.74,2.35V52.72H453V73.35a11.05,11.05,0,0,1-1.14,5.09A8.58,8.58,0,0,1,448.43,82a11.06,11.06,0,0,1-5.55,1.31,11.92,11.92,0,0,1-7.16-2,7.57,7.57,0,0,1-3.16-5.55h5.14A3.84,3.84,0,0,0,439.46,78a6.16,6.16,0,0,0,3.27.83,5,5,0,0,0,3.66-1.35,5.41,5.41,0,0,0,1.41-4.09V70.17A8,8,0,0,1,445,72.58a8.23,8.23,0,0,1-4,1,8.87,8.87,0,0,1-4.73-1.33,9.31,9.31,0,0,1-3.39-3.76,12.1,12.1,0,0,1-1.23-5.56,11.92,11.92,0,0,1,1.23-5.51,9.11,9.11,0,0,1,3.37-3.7A9,9,0,0,1,441,52.39,8.64,8.64,0,0,1,445.06,53.29Zm2,6.44a5.18,5.18,0,0,0-2-2.07,5.35,5.35,0,0,0-5.36,0,5.36,5.36,0,0,0-2,2,6.5,6.5,0,0,0-.76,3.2,6.67,6.67,0,0,0,.76,3.23,5.42,5.42,0,0,0,2,2.13,5.09,5.09,0,0,0,2.64.74,5.35,5.35,0,0,0,2.7-.72,5.18,5.18,0,0,0,2-2.07,7.44,7.44,0,0,0,0-6.47Z"/><path class="cls-2" d="M477.68,52.72,465,82.9h-5.51l4.44-10.21-8.21-20h5.81L466.81,67l5.36-14.31Z"/><path class="cls-2" d="M489.16,57.38a8.93,8.93,0,0,1,8.16-5,8.84,8.84,0,0,1,3.81.86A7.65,7.65,0,0,1,504,55.57V45.84h5.25V73.21H504v-3a7,7,0,0,1-2.7,2.44,8.41,8.41,0,0,1-4,.93,8.82,8.82,0,0,1-4.73-1.33,9.31,9.31,0,0,1-3.39-3.76,12.11,12.11,0,0,1-1.24-5.56A11.93,11.93,0,0,1,489.16,57.38Zm14.15,2.35a5.3,5.3,0,0,0-9.34,0,6.39,6.39,0,0,0-.76,3.2,6.56,6.56,0,0,0,.76,3.23,5.35,5.35,0,0,0,2,2.13,5.06,5.06,0,0,0,2.64.74,5.35,5.35,0,0,0,2.7-.72,5.25,5.25,0,0,0,2-2.07,7.44,7.44,0,0,0,0-6.47Z"/><path class="cls-2" d="M522.11,53.35a7.21,7.21,0,0,1,3.68-.93v5.44h-1.37A5.28,5.28,0,0,0,520.74,59c-.82.77-1.24,2.1-1.24,4V73.21h-5.17V52.72h5.17V55.9A7.24,7.24,0,0,1,522.11,53.35Z"/><path class="cls-2" d="M529.62,49.41a3,3,0,0,1,0-4.33,3.14,3.14,0,0,1,2.27-.87,3.18,3.18,0,0,1,2.28.87,3.05,3.05,0,0,1,0,4.33,3.18,3.18,0,0,1-2.28.87A3.14,3.14,0,0,1,529.62,49.41Zm4.82,3.31V73.21h-5.17V52.72Z"/><path class="cls-2" d="M556.82,54.73a8.9,8.9,0,0,1,2.25,6.46v12H553.9V61.89a5.31,5.31,0,0,0-1.22-3.75,4.33,4.33,0,0,0-3.33-1.32A4.44,4.44,0,0,0,546,58.14a5.27,5.27,0,0,0-1.24,3.75V73.21h-5.17V52.72h5.17v2.55a7.21,7.21,0,0,1,2.65-2.09,8.25,8.25,0,0,1,3.53-.76A7.92,7.92,0,0,1,556.82,54.73Z"/><path class="cls-2" d="M576.12,73.21l-7-8.73v8.73H564V45.84h5.18V61.41l6.88-8.69h6.73l-9,10.28,9.09,10.21Z"/><path class="cls-2" d="M594.74,49.41a3.05,3.05,0,0,1,0-4.33,3.41,3.41,0,0,1,4.55,0,3,3,0,0,1,0,4.33,3.41,3.41,0,0,1-4.55,0Zm4.83,3.31V73.21h-5.18V52.72Z"/><path class="cls-2" d="M608,72.63a7.86,7.86,0,0,1-3.16-2.46,6.24,6.24,0,0,1-1.28-3.44h5.22a2.78,2.78,0,0,0,1.16,2,4.66,4.66,0,0,0,4.85.19,1.8,1.8,0,0,0,.83-1.52,1.61,1.61,0,0,0-1-1.5,20.07,20.07,0,0,0-3.24-1.09,28.34,28.34,0,0,1-3.75-1.14,6.6,6.6,0,0,1-2.51-1.81,4.85,4.85,0,0,1-1.06-3.3,5.33,5.33,0,0,1,1-3.1,6.58,6.58,0,0,1,2.81-2.22,10.59,10.59,0,0,1,4.31-.81A8.78,8.78,0,0,1,618,54.22a6.76,6.76,0,0,1,2.41,4.93h-5a2.68,2.68,0,0,0-1-1.94,4.59,4.59,0,0,0-4.59-.2,1.63,1.63,0,0,0-.76,1.44,1.7,1.7,0,0,0,1,1.57,15.94,15.94,0,0,0,3.21,1.09A27,27,0,0,1,617,62.26a6.35,6.35,0,0,1,2.49,1.83,5,5,0,0,1,1.09,3.27,5.35,5.35,0,0,1-1,3.18,6.41,6.41,0,0,1-2.81,2.2,11.71,11.71,0,0,1-8.78-.11Z"/><path class="cls-2" d="M206.41,101.76a8.88,8.88,0,0,1,8.12-5,8.33,8.33,0,0,1,4,.93,8.08,8.08,0,0,1,2.75,2.33V97.1h5.22v20.48h-5.22v-3a7.66,7.66,0,0,1-2.75,2.38,8.41,8.41,0,0,1-4,1,8.78,8.78,0,0,1-4.72-1.33,9.32,9.32,0,0,1-3.36-3.76,12,12,0,0,1-1.24-5.56A11.8,11.8,0,0,1,206.41,101.76Zm14.14,2.34a5.22,5.22,0,0,0-2-2.07,5.43,5.43,0,0,0-5.37,0,5.29,5.29,0,0,0-2,2.06,6.37,6.37,0,0,0-.76,3.2,6.56,6.56,0,0,0,.76,3.23,5.4,5.4,0,0,0,2,2.13,5.13,5.13,0,0,0,2.65.74,5.35,5.35,0,0,0,2.7-.72,5.22,5.22,0,0,0,2-2.07,7.46,7.46,0,0,0,0-6.48Z"/><path class="cls-2" d="M243.63,97.67a7.44,7.44,0,0,1,2.74,2.35V97.1h5.21v20.63a11,11,0,0,1-1.15,5.09,8.51,8.51,0,0,1-3.44,3.55,11,11,0,0,1-5.54,1.31,11.9,11.9,0,0,1-7.16-2,7.57,7.57,0,0,1-3.16-5.55h5.14a3.87,3.87,0,0,0,1.76,2.24,6.16,6.16,0,0,0,3.27.83,5.07,5.07,0,0,0,3.66-1.35,5.41,5.41,0,0,0,1.41-4.09v-3.18a7.93,7.93,0,0,1-2.76,2.4,8.12,8.12,0,0,1-4,1,8.88,8.88,0,0,1-4.74-1.33,9.36,9.36,0,0,1-3.38-3.76,12,12,0,0,1-1.24-5.56,11.8,11.8,0,0,1,1.24-5.51,8.91,8.91,0,0,1,8.12-5A8.64,8.64,0,0,1,243.63,97.67Zm2,6.43a5.25,5.25,0,0,0-2-2.07,5.41,5.41,0,0,0-5.36,0,5.24,5.24,0,0,0-2,2.06,6.37,6.37,0,0,0-.76,3.2,6.56,6.56,0,0,0,.76,3.23,5.35,5.35,0,0,0,2,2.13,5.06,5.06,0,0,0,2.64.74,5.35,5.35,0,0,0,2.7-.72,5.25,5.25,0,0,0,2-2.07,7.46,7.46,0,0,0,0-6.48Z"/><path class="cls-2" d="M275.54,108.89h-15a5.1,5.1,0,0,0,1.55,3.48,4.78,4.78,0,0,0,3.37,1.26,4.22,4.22,0,0,0,4.1-2.48h5.58a9.3,9.3,0,0,1-3.4,4.86,9.9,9.9,0,0,1-6.17,1.91,10.64,10.64,0,0,1-5.31-1.32,9.14,9.14,0,0,1-3.66-3.71,11.35,11.35,0,0,1-1.31-5.55,11.61,11.61,0,0,1,1.29-5.58,9,9,0,0,1,3.62-3.7,10.92,10.92,0,0,1,5.37-1.3A10.76,10.76,0,0,1,270.83,98a8.88,8.88,0,0,1,3.59,3.57,10.81,10.81,0,0,1,1.27,5.31A12,12,0,0,1,275.54,108.89Zm-5.21-3.47a4.11,4.11,0,0,0-1.44-3.2,5.13,5.13,0,0,0-3.44-1.2,4.7,4.7,0,0,0-3.24,1.16,5.18,5.18,0,0,0-1.61,3.24Z"/><path class="cls-2" d="M295.22,102.2v4.36H279.54V102.2Z"/><path class="cls-2" d="M308.81,97.73a7.21,7.21,0,0,1,3.68-.93v5.44h-1.37a5.27,5.27,0,0,0-3.68,1.14c-.83.77-1.24,2.1-1.24,4v10.2H301V97.1h5.18v3.18A7.24,7.24,0,0,1,308.81,97.73Z"/><path class="cls-2" d="M334.86,108.89h-15a5.11,5.11,0,0,0,1.56,3.48,4.77,4.77,0,0,0,3.36,1.26,4.25,4.25,0,0,0,4.11-2.48h5.58a9.36,9.36,0,0,1-3.4,4.86,10,10,0,0,1-6.18,1.91,10.61,10.61,0,0,1-5.3-1.32,9.14,9.14,0,0,1-3.66-3.71,11.36,11.36,0,0,1-1.32-5.55,11.5,11.5,0,0,1,1.3-5.58,9,9,0,0,1,3.62-3.7,11.61,11.61,0,0,1,10.6,0,8.85,8.85,0,0,1,3.58,3.57A10.81,10.81,0,0,1,335,106.9,12,12,0,0,1,334.86,108.89Zm-5.21-3.47a4.12,4.12,0,0,0-1.45-3.2,5.1,5.1,0,0,0-3.44-1.2,4.66,4.66,0,0,0-3.23,1.16,5.13,5.13,0,0,0-1.61,3.24Z"/><path class="cls-2" d="M342.11,117a7.86,7.86,0,0,1-3.16-2.46,6.16,6.16,0,0,1-1.28-3.44h5.22a2.8,2.8,0,0,0,1.16,2,4,4,0,0,0,2.53.78,3.94,3.94,0,0,0,2.31-.59,1.8,1.8,0,0,0,.84-1.52,1.6,1.6,0,0,0-1-1.5,20.07,20.07,0,0,0-3.24-1.09,28.34,28.34,0,0,1-3.75-1.14,6.52,6.52,0,0,1-2.51-1.82,4.82,4.82,0,0,1-1.06-3.29,5.31,5.31,0,0,1,1-3.1,6.52,6.52,0,0,1,2.81-2.22,10.42,10.42,0,0,1,4.31-.82,8.78,8.78,0,0,1,5.84,1.83,6.78,6.78,0,0,1,2.41,4.94h-5a2.68,2.68,0,0,0-1-1.94,3.82,3.82,0,0,0-2.43-.72,3.77,3.77,0,0,0-2.16.52,1.63,1.63,0,0,0-.76,1.44,1.7,1.7,0,0,0,1,1.57,15.94,15.94,0,0,0,3.21,1.09,26.39,26.39,0,0,1,3.66,1.15,6.31,6.31,0,0,1,2.5,1.83,5,5,0,0,1,1.09,3.27,5.39,5.39,0,0,1-1,3.18,6.41,6.41,0,0,1-2.81,2.2,10.63,10.63,0,0,1-4.27.8A10.84,10.84,0,0,1,342.11,117Z"/><path class="cls-2" d="M365,101.35v9.91a2,2,0,0,0,.5,1.5,2.48,2.48,0,0,0,1.69.46h2.4v4.36h-3.26q-6.54,0-6.54-6.36v-9.87h-2.44V97.1h2.44V92H365V97.1h4.59v4.25Z"/><path class="cls-2" d="M381.07,97.73a7.21,7.21,0,0,1,3.68-.93v5.44h-1.37a5.27,5.27,0,0,0-3.68,1.14c-.83.77-1.24,2.1-1.24,4v10.2h-5.18V97.1h5.18v3.18A7.24,7.24,0,0,1,381.07,97.73Z"/><path class="cls-2" d="M388.57,93.79a3.05,3.05,0,0,1,0-4.33,3.18,3.18,0,0,1,2.28-.87,3.14,3.14,0,0,1,2.27.87,3,3,0,0,1,0,4.33,3.14,3.14,0,0,1-2.27.87A3.18,3.18,0,0,1,388.57,93.79Zm4.83,3.31v20.48h-5.18V97.1Z"/><path class="cls-2" d="M398.47,101.77a9.22,9.22,0,0,1,3.58-3.69,10.35,10.35,0,0,1,5.26-1.32,10.09,10.09,0,0,1,6.3,1.91A9.25,9.25,0,0,1,417,104h-5.59a4.06,4.06,0,0,0-1.49-2.09,4.42,4.42,0,0,0-2.61-.76,4.27,4.27,0,0,0-3.51,1.61,7.11,7.11,0,0,0-1.3,4.57,7,7,0,0,0,1.3,4.53,4.27,4.27,0,0,0,3.51,1.61,3.93,3.93,0,0,0,4.1-2.81H417a9.47,9.47,0,0,1-3.37,5.29,9.93,9.93,0,0,1-6.28,2,10.35,10.35,0,0,1-5.26-1.32,9.22,9.22,0,0,1-3.58-3.69,12.58,12.58,0,0,1,0-11.14Z"/><path class="cls-2" d="M426.79,101.35v9.91a2,2,0,0,0,.5,1.5,2.48,2.48,0,0,0,1.69.46h2.4v4.36h-3.25q-6.56,0-6.55-6.36v-9.87h-2.44V97.1h2.44V92h5.21V97.1h4.59v4.25Z"/><path class="cls-2" d="M454,108.89H439a5.15,5.15,0,0,0,1.56,3.48,4.77,4.77,0,0,0,3.36,1.26,4.24,4.24,0,0,0,4.11-2.48h5.58a9.3,9.3,0,0,1-3.4,4.86,10,10,0,0,1-6.18,1.91,10.61,10.61,0,0,1-5.3-1.32,9.14,9.14,0,0,1-3.66-3.71,11.36,11.36,0,0,1-1.32-5.55,11.5,11.5,0,0,1,1.3-5.58,9,9,0,0,1,3.62-3.7,11.61,11.61,0,0,1,10.6,0,8.85,8.85,0,0,1,3.58,3.57,10.81,10.81,0,0,1,1.28,5.31A12,12,0,0,1,454,108.89Zm-5.21-3.47a4.15,4.15,0,0,0-1.44-3.2,5.13,5.13,0,0,0-3.44-1.2,4.67,4.67,0,0,0-3.24,1.16,5.13,5.13,0,0,0-1.61,3.24Z"/><path class="cls-2" d="M457.84,101.76a8.93,8.93,0,0,1,3.38-3.7,9.09,9.09,0,0,1,4.77-1.3,8.71,8.71,0,0,1,3.81.87,7.68,7.68,0,0,1,2.89,2.31V90.22h5.25v27.36h-5.25v-3A7,7,0,0,1,470,117a8.44,8.44,0,0,1-4,.93,8.88,8.88,0,0,1-4.74-1.33,9.22,9.22,0,0,1-3.38-3.76,12,12,0,0,1-1.24-5.56A11.8,11.8,0,0,1,457.84,101.76ZM472,104.1a5.22,5.22,0,0,0-2-2.07,5.43,5.43,0,0,0-5.37,0,5.29,5.29,0,0,0-2,2.06,6.37,6.37,0,0,0-.76,3.2,6.56,6.56,0,0,0,.76,3.23,5.4,5.4,0,0,0,2,2.13,5.13,5.13,0,0,0,2.65.74,5.35,5.35,0,0,0,2.7-.72,5.22,5.22,0,0,0,2-2.07,7.46,7.46,0,0,0,0-6.48Z"/><path class="cls-2" d="M501.2,101.35h-3.59v16.23h-5.25V101.35H490V97.1h2.33v-1q0-3.77,2.15-5.55T501,88.85v4.36a3.89,3.89,0,0,0-2.63.63,3.18,3.18,0,0,0-.74,2.41v.85h3.59Z"/><path class="cls-2" d="M508.34,116.6a9.41,9.41,0,0,1-3.72-3.71,11.15,11.15,0,0,1-1.35-5.55,10.87,10.87,0,0,1,1.39-5.55,9.52,9.52,0,0,1,3.79-3.71,11.54,11.54,0,0,1,10.72,0,9.59,9.59,0,0,1,3.79,3.71,10.87,10.87,0,0,1,1.39,5.55,10.69,10.69,0,0,1-1.43,5.55,9.78,9.78,0,0,1-3.84,3.71,11.15,11.15,0,0,1-5.42,1.32A10.71,10.71,0,0,1,508.34,116.6Zm8-3.88a5,5,0,0,0,2-2,6.83,6.83,0,0,0,.74-3.33,6.17,6.17,0,0,0-1.53-4.49,5,5,0,0,0-3.75-1.57,4.93,4.93,0,0,0-3.72,1.57,6.25,6.25,0,0,0-1.5,4.49,6.35,6.35,0,0,0,1.46,4.49,4.8,4.8,0,0,0,3.68,1.58A5.31,5.31,0,0,0,516.3,112.72Z"/><path class="cls-2" d="M535.94,97.73a7.21,7.21,0,0,1,3.68-.93v5.44h-1.37a5.28,5.28,0,0,0-3.68,1.14c-.82.77-1.24,2.1-1.24,4v10.2h-5.17V97.1h5.17v3.18A7.24,7.24,0,0,1,535.94,97.73Z"/><path class="cls-2" d="M552.25,93.79a3,3,0,0,1,0-4.33,3.41,3.41,0,0,1,4.55,0,3.05,3.05,0,0,1,0,4.33,3.41,3.41,0,0,1-4.55,0Zm4.83,3.31v20.48H551.9V97.1Z"/><path class="cls-2" d="M579.45,99.11a8.86,8.86,0,0,1,2.25,6.46v12h-5.17V106.27a5.35,5.35,0,0,0-1.22-3.76A4.36,4.36,0,0,0,572,101.2a4.47,4.47,0,0,0-3.39,1.31,5.31,5.31,0,0,0-1.23,3.76v11.31h-5.18V97.1h5.18v2.55A7.08,7.08,0,0,1,570,97.56a8.11,8.11,0,0,1,3.53-.76A7.9,7.9,0,0,1,579.45,99.11Z"/><path class="cls-2" d="M586.53,101.76a9,9,0,0,1,3.38-3.7,9.1,9.1,0,0,1,4.78-1.3,8.63,8.63,0,0,1,3.8.87,7.68,7.68,0,0,1,2.89,2.31V90.22h5.25v27.36h-5.25v-3a7,7,0,0,1-2.7,2.44,8.41,8.41,0,0,1-4,.93,8.88,8.88,0,0,1-4.74-1.33,9.29,9.29,0,0,1-3.38-3.76,12,12,0,0,1-1.24-5.56A11.8,11.8,0,0,1,586.53,101.76Zm14.15,2.34a5.25,5.25,0,0,0-2-2.07,5.41,5.41,0,0,0-5.36,0,5.24,5.24,0,0,0-2,2.06,6.37,6.37,0,0,0-.76,3.2,6.56,6.56,0,0,0,.76,3.23,5.35,5.35,0,0,0,2,2.13,5.06,5.06,0,0,0,2.64.74,5.35,5.35,0,0,0,2.7-.72,5.25,5.25,0,0,0,2-2.07,7.46,7.46,0,0,0,0-6.48Z"/><path class="cls-2" d="M612.05,93.79a3,3,0,0,1,0-4.33,3.14,3.14,0,0,1,2.27-.87,3.18,3.18,0,0,1,2.28.87,3.05,3.05,0,0,1,0,4.33,3.18,3.18,0,0,1-2.28.87A3.14,3.14,0,0,1,612.05,93.79Zm4.82,3.31v20.48H611.7V97.1Z"/><path class="cls-2" d="M630.52,112.81,635.7,97.1h5.51l-7.58,20.48h-6.29L619.79,97.1h5.55Z"/><path class="cls-2" d="M644.48,93.79a3,3,0,0,1,0-4.33,3.41,3.41,0,0,1,4.55,0,3.05,3.05,0,0,1,0,4.33,3.41,3.41,0,0,1-4.55,0Zm4.83,3.31v20.48h-5.18V97.1Z"/><path class="cls-2" d="M654.32,101.76a8.93,8.93,0,0,1,3.38-3.7,9.09,9.09,0,0,1,4.77-1.3,8.71,8.71,0,0,1,3.81.87,7.56,7.56,0,0,1,2.88,2.31V90.22h5.26v27.36h-5.26v-3a7,7,0,0,1-2.69,2.44,8.45,8.45,0,0,1-4,.93,8.87,8.87,0,0,1-4.73-1.33,9.22,9.22,0,0,1-3.38-3.76,12,12,0,0,1-1.24-5.56A11.8,11.8,0,0,1,654.32,101.76Zm14.14,2.34a5.22,5.22,0,0,0-2-2.07,5.27,5.27,0,0,0-7.35,2,6.47,6.47,0,0,0-.75,3.2,6.67,6.67,0,0,0,.75,3.23,5.49,5.49,0,0,0,2,2.13,5.13,5.13,0,0,0,2.65.74,5.35,5.35,0,0,0,2.7-.72,5.22,5.22,0,0,0,2-2.07,7.46,7.46,0,0,0,0-6.48Z"/><path class="cls-2" d="M698.82,97.1v20.48h-5.21V115a6.82,6.82,0,0,1-2.61,2.09,8,8,0,0,1-3.49.76,8.79,8.79,0,0,1-4.26-1,7.18,7.18,0,0,1-2.9-3,9.94,9.94,0,0,1-1.05-4.72v-12h5.17v11.28a5.3,5.3,0,0,0,1.23,3.75,4.32,4.32,0,0,0,3.32,1.31,4.41,4.41,0,0,0,3.37-1.31,5.34,5.34,0,0,0,1.22-3.75V97.1Z"/><path class="cls-2" d="M703.83,101.76a8.91,8.91,0,0,1,8.12-5,8.28,8.28,0,0,1,4,.93,8,8,0,0,1,2.76,2.33V97.1h5.21v20.48h-5.21v-3A7.78,7.78,0,0,1,716,117a8.41,8.41,0,0,1-4.05,1,8.77,8.77,0,0,1-4.71-1.33,9.34,9.34,0,0,1-3.37-3.76,12.11,12.11,0,0,1-1.24-5.56A11.93,11.93,0,0,1,703.83,101.76ZM718,104.1a5.18,5.18,0,0,0-2-2.07,5.26,5.26,0,0,0-7.34,2,6.47,6.47,0,0,0-.76,3.2,6.67,6.67,0,0,0,.76,3.23,5.42,5.42,0,0,0,2,2.13,5.09,5.09,0,0,0,2.64.74,5.35,5.35,0,0,0,2.7-.72,5.18,5.18,0,0,0,2-2.07,7.46,7.46,0,0,0,0-6.48Z"/><path class="cls-2" d="M734.18,90.22v27.36H729V90.22Z"/><path class="cls-2" d="M742.61,117a7.86,7.86,0,0,1-3.16-2.46,6.16,6.16,0,0,1-1.28-3.44h5.22a2.8,2.8,0,0,0,1.16,2,4,4,0,0,0,2.53.78,3.94,3.94,0,0,0,2.31-.59,1.8,1.8,0,0,0,.84-1.52,1.6,1.6,0,0,0-1-1.5,20.07,20.07,0,0,0-3.24-1.09,28.34,28.34,0,0,1-3.75-1.14,6.52,6.52,0,0,1-2.51-1.82,4.82,4.82,0,0,1-1.06-3.29,5.31,5.31,0,0,1,1-3.1,6.52,6.52,0,0,1,2.81-2.22,10.42,10.42,0,0,1,4.31-.82,8.78,8.78,0,0,1,5.84,1.83,6.78,6.78,0,0,1,2.41,4.94h-5a2.68,2.68,0,0,0-1-1.94,3.82,3.82,0,0,0-2.43-.72,3.77,3.77,0,0,0-2.16.52,1.63,1.63,0,0,0-.76,1.44,1.7,1.7,0,0,0,1,1.57,15.94,15.94,0,0,0,3.21,1.09,26.39,26.39,0,0,1,3.66,1.15,6.31,6.31,0,0,1,2.5,1.83,5,5,0,0,1,1.09,3.27,5.39,5.39,0,0,1-1,3.18,6.41,6.41,0,0,1-2.81,2.2,10.63,10.63,0,0,1-4.27.8A10.84,10.84,0,0,1,742.61,117Z"/><path class="cls-2" d="M210.27,161a9.42,9.42,0,0,1-3.71-3.72,11.12,11.12,0,0,1-1.35-5.54,10.94,10.94,0,0,1,1.38-5.55,9.75,9.75,0,0,1,3.79-3.72,11.64,11.64,0,0,1,10.73,0,9.75,9.75,0,0,1,3.79,3.72,10.94,10.94,0,0,1,1.39,5.55,10.65,10.65,0,0,1-1.43,5.54A9.8,9.8,0,0,1,221,161a11.14,11.14,0,0,1-5.42,1.31A10.77,10.77,0,0,1,210.27,161Zm8-3.88a5,5,0,0,0,2-2,7,7,0,0,0,.74-3.33,6.2,6.2,0,0,0-1.53-4.5,5.1,5.1,0,0,0-3.76-1.57,4.92,4.92,0,0,0-3.71,1.57,6.27,6.27,0,0,0-1.5,4.5,6.34,6.34,0,0,0,1.46,4.49,4.79,4.79,0,0,0,3.68,1.57A5.41,5.41,0,0,0,218.24,157.1Z"/><path class="cls-2" d="M238.64,157.19l5.17-15.72h5.51L241.74,162h-6.28l-7.55-20.49h5.55Z"/><path class="cls-2" d="M271.14,153.27h-15a5.1,5.1,0,0,0,1.55,3.48,4.81,4.81,0,0,0,3.36,1.25,4.22,4.22,0,0,0,4.11-2.47h5.58a9.3,9.3,0,0,1-3.4,4.86,9.92,9.92,0,0,1-6.17,1.9,10.61,10.61,0,0,1-5.31-1.31,9.11,9.11,0,0,1-3.66-3.72,11.32,11.32,0,0,1-1.32-5.54,11.68,11.68,0,0,1,1.3-5.59,9.09,9.09,0,0,1,3.62-3.7,10.91,10.91,0,0,1,5.37-1.29,10.76,10.76,0,0,1,5.23,1.26A8.88,8.88,0,0,1,270,146a10.79,10.79,0,0,1,1.27,5.3A12.07,12.07,0,0,1,271.14,153.27Zm-5.21-3.48a4.13,4.13,0,0,0-1.44-3.19,5.09,5.09,0,0,0-3.44-1.21,4.71,4.71,0,0,0-3.24,1.17,5.13,5.13,0,0,0-1.61,3.23Z"/><path class="cls-2" d="M282.85,142.1a7.31,7.31,0,0,1,3.68-.92v5.43h-1.37a5.25,5.25,0,0,0-3.68,1.15c-.83.76-1.24,2.1-1.24,4V162h-5.18V141.47h5.18v3.18A7.41,7.41,0,0,1,282.85,142.1Z"/><path class="cls-2" d="M304.83,145.73v9.91a1.94,1.94,0,0,0,.5,1.49,2.43,2.43,0,0,0,1.68.47h2.41V162h-3.26q-6.54,0-6.54-6.36v-9.87h-2.44v-4.26h2.44v-5.06h5.21v5.06h4.59v4.26Z"/><path class="cls-2" d="M328.83,142.19a7,7,0,0,1,2.83,3,10.25,10.25,0,0,1,1,4.75v12H327.5V150.64a5.34,5.34,0,0,0-1.22-3.75,4.33,4.33,0,0,0-3.33-1.31,4.43,4.43,0,0,0-3.38,1.31,5.25,5.25,0,0,0-1.24,3.75V162h-5.18V134.59h5.18V144a6.7,6.7,0,0,1,2.66-2.09,8.75,8.75,0,0,1,3.7-.76A8.41,8.41,0,0,1,328.83,142.19Z"/><path class="cls-2" d="M356.49,153.27h-15a5.1,5.1,0,0,0,1.55,3.48,4.81,4.81,0,0,0,3.37,1.25,4.22,4.22,0,0,0,4.1-2.47h5.58a9.3,9.3,0,0,1-3.4,4.86,9.9,9.9,0,0,1-6.17,1.9,10.61,10.61,0,0,1-5.31-1.31,9.11,9.11,0,0,1-3.66-3.72,11.31,11.31,0,0,1-1.31-5.54,11.68,11.68,0,0,1,1.29-5.59,9.09,9.09,0,0,1,3.62-3.7,10.91,10.91,0,0,1,5.37-1.29,10.76,10.76,0,0,1,5.23,1.26,8.88,8.88,0,0,1,3.59,3.57,10.79,10.79,0,0,1,1.27,5.3A12.07,12.07,0,0,1,356.49,153.27Zm-5.21-3.48a4.09,4.09,0,0,0-1.44-3.19,5.09,5.09,0,0,0-3.44-1.21,4.71,4.71,0,0,0-3.24,1.17,5.13,5.13,0,0,0-1.61,3.23Z"/><path class="cls-2" d="M369.12,146.13a9.17,9.17,0,0,1,3.37-3.7,9,9,0,0,1,4.75-1.29,8.28,8.28,0,0,1,4,.93,8.1,8.1,0,0,1,2.76,2.32v-2.92h5.21V162H384v-3a7.78,7.78,0,0,1-2.76,2.38,8.41,8.41,0,0,1-4.05.94,8.66,8.66,0,0,1-4.71-1.33,9.38,9.38,0,0,1-3.37-3.75,12.15,12.15,0,0,1-1.24-5.57A12,12,0,0,1,369.12,146.13Zm14.15,2.35a5.25,5.25,0,0,0-2-2.07,5.35,5.35,0,0,0-2.7-.72,5.21,5.21,0,0,0-2.66.7,5.28,5.28,0,0,0-2,2.05,6.39,6.39,0,0,0-.76,3.2,6.6,6.6,0,0,0,.76,3.24,5.56,5.56,0,0,0,2,2.13,5.05,5.05,0,0,0,2.64.73,5.35,5.35,0,0,0,2.7-.72,5.25,5.25,0,0,0,2-2.07,7.44,7.44,0,0,0,0-6.47Z"/><path class="cls-2" d="M406.34,142.05a7.42,7.42,0,0,1,2.74,2.34v-2.92h5.21v20.64a11,11,0,0,1-1.14,5.08,8.46,8.46,0,0,1-3.44,3.55,11,11,0,0,1-5.55,1.32,11.8,11.8,0,0,1-7.15-2,7.51,7.51,0,0,1-3.17-5.54H399a3.86,3.86,0,0,0,1.76,2.23,6.07,6.07,0,0,0,3.27.83,5.12,5.12,0,0,0,3.67-1.34,5.48,5.48,0,0,0,1.4-4.09v-3.18a7.84,7.84,0,0,1-2.76,2.4,8.2,8.2,0,0,1-4,1,8.78,8.78,0,0,1-4.73-1.33,9.26,9.26,0,0,1-3.38-3.75,12,12,0,0,1-1.24-5.57,11.83,11.83,0,0,1,1.24-5.51,9.08,9.08,0,0,1,3.36-3.7,9,9,0,0,1,4.75-1.29A8.52,8.52,0,0,1,406.34,142.05Zm2,6.43a5.18,5.18,0,0,0-2-2.07,5.3,5.3,0,0,0-2.7-.72,5.24,5.24,0,0,0-2.66.7,5.36,5.36,0,0,0-2,2.05,6.5,6.5,0,0,0-.76,3.2,6.71,6.71,0,0,0,.76,3.24,5.56,5.56,0,0,0,2,2.13,5.11,5.11,0,0,0,2.64.73,5.3,5.3,0,0,0,2.7-.72,5.18,5.18,0,0,0,2-2.07,7.44,7.44,0,0,0,0-6.47Z"/><path class="cls-2" d="M438.26,153.27h-15a5.1,5.1,0,0,0,1.55,3.48A4.85,4.85,0,0,0,428.2,158a4.22,4.22,0,0,0,4.1-2.47h5.59a9.36,9.36,0,0,1-3.4,4.86,10,10,0,0,1-6.18,1.9A10.67,10.67,0,0,1,423,161a9.23,9.23,0,0,1-3.66-3.72,11.43,11.43,0,0,1-1.31-5.54,11.68,11.68,0,0,1,1.29-5.59,9.11,9.11,0,0,1,3.63-3.7,10.87,10.87,0,0,1,5.36-1.29,10.73,10.73,0,0,1,5.23,1.26,8.88,8.88,0,0,1,3.59,3.57,10.8,10.8,0,0,1,1.28,5.3A12.07,12.07,0,0,1,438.26,153.27ZM433,149.79a4.06,4.06,0,0,0-1.44-3.19,5.07,5.07,0,0,0-3.44-1.21,4.67,4.67,0,0,0-3.23,1.17,5,5,0,0,0-1.61,3.23Z"/><path class="cls-2" d="M454.75,161a9.38,9.38,0,0,1-3.72-3.72,11.12,11.12,0,0,1-1.35-5.54,10.94,10.94,0,0,1,1.39-5.55,9.75,9.75,0,0,1,3.79-3.72,11.64,11.64,0,0,1,10.73,0,9.75,9.75,0,0,1,3.79,3.72,10.94,10.94,0,0,1,1.38,5.55,10.65,10.65,0,0,1-1.42,5.54,9.76,9.76,0,0,1-3.85,3.72,11.1,11.1,0,0,1-5.41,1.31A10.74,10.74,0,0,1,454.75,161Zm8-3.88a5,5,0,0,0,2-2,7,7,0,0,0,.74-3.33,6.16,6.16,0,0,0-1.54-4.5,5.06,5.06,0,0,0-3.75-1.57,5,5,0,0,0-3.72,1.57,6.27,6.27,0,0,0-1.49,4.5,6.34,6.34,0,0,0,1.46,4.49,4.79,4.79,0,0,0,3.68,1.57A5.46,5.46,0,0,0,462.72,157.1Z"/><path class="cls-2" d="M484,145.73h-3.59V162h-5.25V145.73H472.8v-4.26h2.33v-1q0-3.78,2.14-5.55c1.43-1.18,3.59-1.74,6.47-1.66v4.36a3.88,3.88,0,0,0-2.62.63,3.1,3.1,0,0,0-.74,2.4v.85H484Z"/><path class="cls-2" d="M494.91,139.77V135h8.91v27H498.5V139.77Z"/><path class="cls-2" d="M521.63,139.4a3.87,3.87,0,0,0-2.61-.77,4,4,0,0,0-3.75,2.05c-.8,1.37-1.22,3.59-1.24,6.67a6,6,0,0,1,2.59-2.31,8.36,8.36,0,0,1,3.7-.83,8.65,8.65,0,0,1,4.25,1,7.24,7.24,0,0,1,2.88,3,11.16,11.16,0,0,1,0,9.43,7.68,7.68,0,0,1-3.09,3.2A9.77,9.77,0,0,1,519.5,162a9.6,9.6,0,0,1-6-1.7,8.85,8.85,0,0,1-3.07-4.75,27.79,27.79,0,0,1-.87-7.52c0-4.52.78-7.92,2.33-10.23s4-3.46,7.36-3.46a8.26,8.26,0,0,1,6,2.11,8.36,8.36,0,0,1,2.47,5.25h-4.8A4.34,4.34,0,0,0,521.63,139.4Zm-5.79,10.21a4.13,4.13,0,0,0-1.33,3.33,4.32,4.32,0,0,0,4.73,4.69,4.15,4.15,0,0,0,3.17-1.22,4.59,4.59,0,0,0,1.16-3.29,4.87,4.87,0,0,0-1.13-3.4,4.2,4.2,0,0,0-3.31-1.26A4.9,4.9,0,0,0,515.84,149.61Z"/><path class="cls-2" d="M533.17,161.35a3,3,0,0,1,0-4.33,3.22,3.22,0,0,1,2.31-.86,3.15,3.15,0,0,1,2.26.86,3.1,3.1,0,0,1,0,4.33,3.12,3.12,0,0,1-2.26.87A3.19,3.19,0,0,1,533.17,161.35Z"/><path class="cls-3" d="M106.93,326.5l7.83-4.54c-.62-1.09-1.2-2.13-1.8-3.16-3.48-6-6.95-12.07-10.47-18.08a14.24,14.24,0,0,0-5.08-5.45,39.08,39.08,0,0,0-3.9-1.71h1c9.54,0,19.08,0,28.62,0a7.22,7.22,0,0,1,6.68,3.63c1.64,2.69,3.18,5.43,4.76,8.15.74,1.26,1.47,2.52,2.28,3.92l7.93-4.57.16.13c-.55,1.15-1.09,2.31-1.65,3.46q-4.68,9.75-9.35,19.52a1.35,1.35,0,0,1-1.58.94c-8.11-.65-16.22-1.26-24.34-1.88l-1-.12Z"/><path class="cls-3" d="M58.82,336.6,51,332l0-.2c.39,0,.77-.09,1.17-.12,8.14-.63,16.29-1.24,24.44-1.89a1.07,1.07,0,0,1,1.23.73q4.22,8.88,8.48,17.72c.88,1.82,1.75,3.64,2.48,5.6l-1-.52c-2-1.16-4-2.31-6-3.5-.67-.4-1-.31-1.45.37-3.86,6.69-7.77,13.36-11.61,20.06a14.47,14.47,0,0,0-2.3,7,39,39,0,0,0,.36,4.41,1.6,1.6,0,0,1-.19-.24q-7.38-12.76-14.75-25.53a6.51,6.51,0,0,1-.27-6.56c1.5-2.91,3.18-5.72,4.79-8.57C57.17,339.43,58,338.09,58.82,336.6Z"/><path class="cls-3" d="M121.68,355.66v1c0,2.39,0,4.77,0,7.16,0,.72.24.92.94.92,7.51,0,15,0,22.52,0a32.39,32.39,0,0,0,6-.75,9.52,9.52,0,0,0,4.88-2.85c.15-.16.32-.31.48-.46s.1,0,.31-.07c-.62,1.07-1.17,2.05-1.73,3-4.33,7.49-8.7,15-13,22.49a7.19,7.19,0,0,1-6.55,4c-4.23.07-8.46.07-12.69,0-.94,0-1.27.21-1.24,1.21.07,2.32,0,4.64,0,7v1.21c-.36-.42-.55-.61-.69-.82-4.63-6.77-9.25-13.56-13.91-20.31a1.42,1.42,0,0,1,0-1.91q7-10.09,13.85-20.23c.15-.22.34-.42.5-.63Z"/><path class="cls-3" d="M90.16,331.56l-22-12.68c.43-.76.83-1.47,1.24-2.17,2.88-5,5.88-9.9,8.61-15,3.3-6.14,10.9-7.19,15.46-5.91a10.68,10.68,0,0,1,5.84,4.25c1.62,2.26,3,4.7,4.48,7.08a1,1,0,0,1,0,.86q-6.67,11.63-13.4,23.22A3.64,3.64,0,0,1,90.16,331.56Z"/><path class="cls-3" d="M125.65,338.6l21.92-12.66a6.45,6.45,0,0,1,.41.56c3.14,5.42,6.3,10.83,9.37,16.29a16.1,16.1,0,0,1,1.71,4.32,12.86,12.86,0,0,1-11,15.22,76.19,76.19,0,0,1-8,.26,1.44,1.44,0,0,1-1-.69c-2-3.4-4-6.82-5.93-10.24L126,339.21C125.87,339.05,125.79,338.88,125.65,338.6Z"/><path class="cls-3" d="M101.38,391.2h-1.13c-6.07,0-12.14,0-18.21,0a16.49,16.49,0,0,1-3.22-.3,12.86,12.86,0,0,1-9.16-17.41,65.79,65.79,0,0,1,3.83-7.23,1.46,1.46,0,0,1,1.11-.46c4.61,0,9.22,0,13.83,0,4,0,8.07,0,12.11,0,.7,0,.93.19.93.91,0,7.92,0,15.83,0,23.75A7.13,7.13,0,0,1,101.38,391.2Z"/><path class="cls-2" d="M366.15,388.58q1.44-9.34,2.89-18.71c1.48-9.61,2.95-19.23,4.48-28.83a1.73,1.73,0,0,1,1.16-1.15c7.16-.4,14.33-.71,21.49-1a6.44,6.44,0,0,1,.89.1q-2.54,25-5.07,49.86l-.23.06q-4-16.15-8.06-32.32l-.59-.05-16.67,32.18Z"/><path class="cls-2" d="M341.74,312.48h10c10.88,0,21.76,0,32.64,0a3,3,0,0,1,2.55,1.25,47.94,47.94,0,0,1,8.76,17.16c.48,1.61.85,3.25,1.32,5.05-1.3.13-2.34.28-3.38.34q-8.55.5-17.11,1c-2.72.14-2.3.27-2.69-2.15a25.78,25.78,0,0,0-3.81-10.36c-2.29-3.44-5.81-4.65-9.53-5.76-6.33-1.89-12.59-4-18.88-6Z"/><path class="cls-2" d="M343.81,390.67c-2.71,0-5.42-.05-8.12,0a1.66,1.66,0,0,1-2-1.63c-1-5.84-2-11.67-3-17.5-1.33-7.81-2.66-15.62-4-23.42-.22-1.24-.8-2.42-1.07-3.66a1.56,1.56,0,0,1,.58-1.24c.3-.22.87-.13,1.32-.13h32.65c.45,0,1-.12,1.32.09s.77,1,.65,1.2c-1.66,3.11-1.55,6.6-2.15,9.91-1.73,9.47-3.28,19-4.9,28.46-.38,2.18-.8,4.34-1.11,6.53a1.35,1.35,0,0,1-1.58,1.36c-2.86,0-5.72,0-8.58,0Zm4.05-31c-.5,0-1,0-1.5,0-1.42-.14-2,.45-1.89,1.89.09,1,0,2,0,3,0,2.07,0,2.1,2.09,2.07,4.65-.05,3.69.58,4.19-3.69C351.21,359.05,351.23,359.71,347.86,359.64Zm.41-7.22a20.26,20.26,0,0,0-2.7,0c-.37.06-1,.53-1,.82,0,1.59.08,3.17.15,4.76l3.66.33c.2,0,.4,0,.6,0,2.27,0,2.28,0,2.55-2.27C352.06,351.78,352.27,352.47,348.27,352.42Zm-5.13,10.77c0-.65-.05-1.3,0-1.95.11-1.15-.33-1.67-1.52-1.61s-2.5,0-3.75,0c-.91,0-1.26.44-1.16,1.33.13,1.09.22,2.19.36,3.28.29,2.31.29,2.31,2.63,2.31C343.15,366.58,343.15,366.58,343.14,363.19Zm-3.63-10.82c-.7,0-1.4,0-2.1,0-1.25-.09-1.7.39-1.51,1.68.78,5.25-.19,4.2,5,4.31,2.28.05,2.28,0,2.29-2.3C343.16,352.4,343.16,352.4,339.51,352.37Zm-.48-6.55c-.75,0-1.51,0-2.25,0s-1.61-.31-1.73.88c-.15,1.48.63,4.17,1.29,4.35a1.54,1.54,0,0,0,.3,0c1.8,0,3.61.06,5.41-.06a1.53,1.53,0,0,0,1-1.07c0-4.76.75-4.07-3.61-4.15Zm9.56.06c-4.57.12-4.06-.88-4.09,3.83,0,.05,0,.1,0,.15,0,.88.42,1.26,1.29,1.25,1.69,0,3.39.05,5.08-.05a1.74,1.74,0,0,0,1.31-.87c1.26-3.61.74-4.32-3-4.31ZM355,359.65c-2.75,0-2.75,0-2.89,2.65l-.06,1.05c-.22,3.41-.22,3.39,3.32,3.25.85,0,1.3-.33,1.41-1.18.19-1.44.4-2.88.66-4.3.19-1.06-.18-1.52-1.24-1.48C355.8,359.66,355.4,359.65,355,359.65Zm-19.23,4.29h0c-.12-1-.26-2-.34-3s-.46-1.34-1.41-1.33c-4.68.09-3.92-.49-3.41,3.86a.77.77,0,0,0,0,.15c.58,3,.59,2.92,3.63,3,1.36,0,1.83-.47,1.56-1.77A6.54,6.54,0,0,1,335.77,363.94Zm8.73,7.13c0,3.27,0,3.28,3.24,3.2.25,0,.56.08.74,0,.4-.28,1-.61,1.06-1a24.39,24.39,0,0,0,.44-4.17c0-.37-.57-.86-1-1.08a3.25,3.25,0,0,0-1.33-.05C344.1,367.92,344.53,367.68,344.5,371.07Zm11.57-18.68c-3.06,0-3-.26-3.13,2.87a10.08,10.08,0,0,1-.21,1.64c-.2,1.07.26,1.47,1.29,1.46,4.52,0,3.68.44,4.41-3.21C359,352.37,359,352.38,356.07,352.39Zm-12.92,18.82c0-3.71.44-3.25-3.28-3.28h-1.05c-1,0-1.32.48-1.18,1.42s.32,2.18.39,3.28.65,1.7,1.92,1.67C343.66,374.2,343.09,374.52,343.15,371.21ZM331.72,352.4l0-.15-2.59.46,1.17,5.53s.09.05.14.05c1.34,0,2.69,0,4-.08.21,0,.53-.69.52-1,0-1.09-.22-2.19-.28-3.28s-.52-1.57-1.6-1.49C332.62,352.42,332.17,352.4,331.72,352.4Zm-1-6.59c-.5,0-1,0-1.5,0-1.34-.1-1.66.53-1.37,1.74.9,3.89.12,3.55,4,3.56,2.4,0,2.4,0,2.1-2.44C333.63,345.83,333.63,345.83,330.71,345.81Zm25.66,5.31c2.89,0,2.89,0,3.26-2.58s.39-2.71-2.39-2.66c-3.07.05-3.07.05-3.5,3-.32,2.17-.28,2.22,1.88,2.25Zm-2.46,16.82c-2.53,0-2.53,0-2.71,2.55,0,.29,0,.59-.05.89-.18,3,.1,3.26,3.13,2.88.05,0,.12,0,.15,0,.34-.3.88-.57,1-.93a31.11,31.11,0,0,0,.67-4.29c0-.34-.46-.86-.83-1A3.27,3.27,0,0,0,353.91,367.94Zm-20,0c-2.41,0-2.41,0-2.06,2.44.07.45.1.9.17,1.34.42,2.62.42,2.62,3.12,2.57h.3c1,.07,1.49-.36,1.34-1.42-.13-.89-.18-1.79-.31-2.68C336.12,367.93,336.11,367.94,333.88,367.93Zm13,7.59c-2.42,0-2.42,0-2.42,2.49v.9c0,2.65.05,2.66,2.66,2.6,1.06,0,1.57-.42,1.65-1.47.05-.74.19-1.48.26-2.23C349.26,375.52,349.26,375.52,346.92,375.52Zm-3.78,3.07h0c0-.65,0-1.3,0-1.94,0-.32-.19-.9-.32-.91-1.32-.06-2.65,0-4,0,0,1.51,0,3,.12,4.5a1.65,1.65,0,0,0,.86,1.2c2.28.77,3.33,0,3.33-2.36Zm-6.92,3.84c-2,0-2.17.06-2.05,1.13.19,1.63.42,3.27.76,4.88s1.67.89,2.61.94,1-.73,1-1.46c-.13-1.19-.4-2.38-.42-3.57C338.06,382.9,337.58,382.14,336.22,382.43Zm13.06,4.94c.17.78-.63,2,1,2.05,2.19.07,2.49,0,2.63-1.67.11-1.24.42-2.45.6-3.69.1-.65.42-1.41-.69-1.62-1.78-.33-2.91,0-3.07,1.09C349.53,384.81,349.42,386.11,349.28,387.37Zm-13.82-5.88c2.21,0,2.29-.08,2.07-2-.1-.89-.31-1.78-.35-2.67s-.5-1.26-1.42-1.28c-3.09-.09-3.09-.12-2.55,3,.07.4.17.79.21,1.18C333.56,381,334.18,381.8,335.46,381.49Zm12.75,3.77c.16-2.93.16-2.88-2.32-2.85-1.06,0-1.42.44-1.4,1.44,0,1.24.07,2.5,0,3.74-.1,1.45.49,2,1.91,1.87,1-.06,1.49-.37,1.56-1.37S348.12,386.2,348.21,385.26Zm4.56-9.72c-2.13,0-2.14,0-2.38,2.09-.06.49-.1,1-.13,1.49-.17,2.43-.08,2.5,2.39,2.38.88,0,1.42-.33,1.53-1.27s.28-1.68.42-2.52C354.93,375.54,354.93,375.54,352.77,375.54Zm-9.63,10.4a15.14,15.14,0,0,1,0-1.65c.17-1.39-.34-2.08-1.82-1.86a2.33,2.33,0,0,1-.59,0c-1.11-.11-1.56.32-1.38,1.47a28.92,28.92,0,0,1,.36,3.72c0,1.42.64,1.87,2,1.85s1.42-.89,1.4-1.89C343.13,387,343.14,386.49,343.14,385.94Z"/><path class="cls-2" d="M387.11,300a9.11,9.11,0,0,1-9.35,9.29,9.36,9.36,0,1,1,.3-18.72A9.11,9.11,0,0,1,387.11,300Z"/><path class="cls-2" d="M337.9,321.93c1,.73,2,1.45,3,2.1a8.07,8.07,0,0,0,10.83-1.22c.92-1,1.37-1,2.35,0a12.91,12.91,0,0,0,3.31,1.84c.36.19.74.36,1.11.54a3.89,3.89,0,0,1-.63,1.09c-2.6,2.34-4.87,4.91-6,8.32a16.17,16.17,0,0,0-.6,2.47c-.14,1-.63,1.15-1.44.71a13.32,13.32,0,0,0-11-.75,8.19,8.19,0,0,1-8-1.12c-1.48-1.14-1.46-1.76,0-2.84,3.46-2.57,5.93-5.79,6.62-10.17a2.67,2.67,0,0,1,.16-.57A2.89,2.89,0,0,1,337.9,321.93ZM331.39,335c.9.5,1.49.86,2.1,1.16,2.19,1.07,4.23.09,6.24-.59a12,12,0,0,1,6.51-.46c1.16.24,2.61,1.16,3.38.74s1-2.12,1.62-3.2c.7-1.3,1.51-2.53,2.4-4h-1.2a28.72,28.72,0,0,1-4.15,0A20.2,20.2,0,0,1,340,325c-1-.66-1.42-.57-1.75.66a16.36,16.36,0,0,1-5.32,8C332.48,334,332.09,334.38,331.39,335Zm24.43-8.82c-2.22-2.28-2.68-2.32-4.88-.9-.7.45-1.52.72-2.28,1.11a9.42,9.42,0,0,0-1,.77C350.7,327.83,353.26,327.79,355.82,326.17Z"/><path class="cls-2" d="M117.5,94.75a3.85,3.85,0,0,0-2.74-.89,4.09,4.09,0,0,0-3.93,2.37c-.8,1.59-1.22,4.09-1.25,7.52a7.14,7.14,0,0,1,3-2.64,10.9,10.9,0,0,1,12,2c1.9,2,2.86,4.75,2.86,8.31a12.85,12.85,0,0,1-1.42,6.14,10.08,10.08,0,0,1-4.13,4.13,13.14,13.14,0,0,1-6.41,1.49q-7.4,0-10.27-4.64t-2.88-13.32q0-9.12,3-13.56t9.77-4.44a12.09,12.09,0,0,1,6.07,1.42A9.55,9.55,0,0,1,125,92.37a12.76,12.76,0,0,1,1.52,5h-7.64A4.9,4.9,0,0,0,117.5,94.75Zm-5.88,13.1a4.45,4.45,0,0,0-1.37,3.48,4.94,4.94,0,0,0,1.27,3.6,4.88,4.88,0,0,0,3.63,1.3,4.4,4.4,0,0,0,3.33-1.28,4.77,4.77,0,0,0,1.23-3.48,5,5,0,0,0-1.2-3.55,4.5,4.5,0,0,0-3.46-1.29A4.94,4.94,0,0,0,111.62,107.85Z"/></g></g></svg>