<svg xmlns="http://www.w3.org/2000/svg" viewBox="0 0 197.32 190.79"><defs><style>.cls-1{fill:#00b2d7;}</style></defs><title>Asset 131</title><g id="Layer_2" data-name="Layer 2"><g id="Layer_1-2" data-name="Layer 1"><path d="M.12,2.46H21.06c13.23,0,19.73,7.35,19.73,20.82v42.6c0,13.48-6.5,20.82-19.73,20.82H.12Zm13.24,12V74.66h7.46c4.21,0,6.74-2.16,6.74-8.18V22.68c0-6-2.53-8.18-6.74-8.18Z"/><path d="M48.13,22.68C48.13,9.2,55.22,1.5,68.22,1.5S88.31,9.2,88.31,22.68v43.8c0,13.48-7.09,21.18-20.09,21.18S48.13,80,48.13,66.48ZM61.36,67.32c0,6,2.65,8.31,6.86,8.31s6.86-2.29,6.86-8.31V21.84c0-6-2.65-8.3-6.86-8.3s-6.86,2.28-6.86,8.3Z"/><path d="M28.16,165.4l9-59.81H55.59v84.23H43.08v-60.4l-9.15,60.4H21.42l-9.87-59.56v59.56H0V105.59H18.41Z"/><path d="M64.13,125.81c0-13.48,7.1-21.18,20.09-21.18s20.1,7.7,20.1,21.18v43.8c0,13.48-7.1,21.18-20.1,21.18s-20.09-7.7-20.09-21.18Zm13.23,44.64c0,6,2.65,8.3,6.86,8.3s6.86-2.28,6.86-8.3V125c0-6-2.65-8.3-6.86-8.3S77.36,119,77.36,125Z"/><path d="M140.53,189.82c-.72-2.16-1.2-3.49-1.2-10.34V166.24c0-7.82-2.65-10.71-8.67-10.71h-4.57v34.29H112.85V105.59h20c13.72,0,19.61,6.38,19.61,19.38v6.61c0,8.67-2.77,14.32-8.66,17.09,6.62,2.77,8.78,9.15,8.78,17.93v13c0,4.09.12,7.09,1.45,10.22Zm-14.44-72.19V143.5h5.17c4.94,0,8-2.17,8-8.91v-8.3c0-6-2.05-8.66-6.74-8.66Z"/><path d="M174.46,141.09h18.17v12H174.46v24.67h22.86v12h-36.1V105.59h36.1v12H174.46Z"/><polygon class="cls-1" points="144.6 0 107.44 81.91 130.3 81.39 102.95 157.03 163.34 63.91 135.67 64.54 173.87 0 144.6 0"/></g></g></svg>