<svg xmlns="http://www.w3.org/2000/svg" viewBox="0 0 320.63 184.63"><defs><style>.cls-1{fill:#00b2d7;}</style></defs><title>Asset 101</title><g id="Layer_2" data-name="Layer 2"><g id="Layer_1-2" data-name="Layer 1"><path d="M1.11,1H14.69V75H37V87.38H1.11Z"/><path d="M38.14,21.72C38.14,7.9,45.42,0,58.74,0S79.35,7.9,79.35,21.72V66.65c0,13.82-7.28,21.72-20.61,21.72s-20.6-7.9-20.6-21.72ZM51.71,67.51c0,6.17,2.71,8.51,7,8.51s7-2.34,7-8.51V20.86c0-6.17-2.72-8.52-7-8.52s-7,2.35-7,8.52Z"/><path d="M114.53,41.34l-4.94,46H91L81.33,1h13.2l7.29,68.12L108.36,1h13.08l6.79,68.62,7-68.62h11.85l-9.63,86.39h-18Z"/><path d="M40.48,151.43v11.48c0,13.82-6.91,21.72-20.24,21.72S0,176.73,0,162.91V118c0-13.83,6.91-21.72,20.24-21.72S40.48,104.16,40.48,118v8.39H27.64v-9.26c0-6.17-2.71-8.51-7-8.51s-7,2.34-7,8.51v46.65c0,6.17,2.72,8.4,7,8.4s7-2.23,7-8.4V151.43Z"/><path d="M89,183.64H75.28L72.94,168H56.27l-2.34,15.67H41.47L55.29,97.25H75.16ZM58,156.25H71.08l-6.54-43.69Z"/><path d="M91.57,97.25h13.57V171.3h22.34v12.34H91.57Z"/><path d="M128.6,118c0-13.83,7.28-21.72,20.6-21.72s20.61,7.89,20.61,21.72v44.92c0,13.82-7.28,21.72-20.61,21.72s-20.6-7.9-20.6-21.72Zm13.57,45.78c0,6.17,2.71,8.52,7,8.52s7-2.35,7-8.52V117.12c0-6.17-2.72-8.51-7-8.51s-7,2.34-7,8.51Z"/><path d="M203.26,183.64c-.74-2.22-1.24-3.57-1.24-10.61V159.45c0-8-2.71-11-8.88-11h-4.69v35.17H174.88V97.25h20.48c14.07,0,20.12,6.54,20.12,19.87v6.79c0,8.88-2.84,14.69-8.89,17.53,6.79,2.83,9,9.38,9,18.38v13.33c0,4.2.13,7.29,1.48,10.49Zm-14.81-74v26.54h5.3c5.07,0,8.15-2.22,8.15-9.13v-8.52c0-6.17-2.1-8.89-6.91-8.89Z"/><path d="M220.78,97.25h13.58v86.39H220.78Z"/><path d="M254.1,133.66h18.64V146H254.1v25.3h23.45v12.34h-37V97.25h37v12.34H254.1Z"/><path d="M300.51,96.27c13.2,0,20,7.89,20,21.72v2.71H307.66v-3.58c0-6.17-2.46-8.51-6.78-8.51s-6.79,2.34-6.79,8.51c0,17.77,26.54,21.11,26.54,45.79,0,13.82-6.92,21.72-20.25,21.72s-20.24-7.9-20.24-21.72V157.6H293v6.17c0,6.17,2.71,8.4,7,8.4s7-2.23,7-8.4c0-17.77-26.54-21.1-26.54-45.78C280.51,104.16,287.3,96.27,300.51,96.27Z"/><path class="cls-1" d="M234.88,15c-15.5-5.4-71.29-21.16-73.26-3.25L154.9,65.16c-.82,6.73.9,14,7.62,15.77,15.15,3.75,24.34,4.51,45.28,11.8s28.6,12.4,42.81,18.87c6.34,2.82,12.23-1.84,15.76-7.62l28.21-46C303.89,42.66,250.37,20.37,234.88,15ZM174.61,27.82a1.77,1.77,0,0,1-1.7-2.11l1-12.46A2.29,2.29,0,0,1,176,11.54a1.78,1.78,0,0,1,1.7,2.12l-1,12.46A2,2,0,0,1,174.61,27.82ZM188.27,14c0-.91,1.11-1.44,2-1.43a2,2,0,0,1,1.7,2.12L190.1,27.12a1.92,1.92,0,0,1-2.3,1.34c-.91,0-1.53-.84-1.43-2Zm-8.13,63.63c-4.64-.7-6.32-4.64-5.17-8.81l8.27-32.48c1-3.63,5.86-2.84,5.72,1.07L187.42,70.7C187.46,75,184.23,78.12,180.14,77.61ZM201.25,31a2,2,0,0,1-1.71-2.12l2.72-12.16a2.18,2.18,0,0,1,2.38-1.61,2.1,2.1,0,0,1,1.34,2.3l-2.71,12.16A1.57,1.57,0,0,1,201.25,31ZM214,34.54a1.93,1.93,0,0,1-1.34-2.29L216.05,20a2.49,2.49,0,0,1,2.3-1.34,2,2,0,0,1,1.24,2.57l-3.26,12A1.92,1.92,0,0,1,214,34.54Zm15.16,2.84a2,2,0,0,1-2.56,1.25,1.76,1.76,0,0,1-1-2.48l4.07-11.69a1.75,1.75,0,0,1,2.3-1.33,2,2,0,0,1,1.24,2.56Zm12.32,4.9a1.88,1.88,0,0,1-3.44-1.5L243,29.37a2,2,0,0,1,2.56-1.24,2.45,2.45,0,0,1,1,2.47Zm17.83-5.68-5.43,11.22c-.55.72-1.65,1.25-2.37.7a1.62,1.62,0,0,1-1-2.47L256,34.83a2.11,2.11,0,0,1,2.47-1A2,2,0,0,1,259.35,36.6ZM272,43.15l-6.24,10.93a1.54,1.54,0,0,1-2.38.7,1.91,1.91,0,0,1-1-2.47l6.25-10.94a2,2,0,0,1,2.65-.6C272.31,41.42,272.57,42.43,272,43.15Zm11.73,8.35-7,10.38a1.78,1.78,0,0,1-2.65.6,2.28,2.28,0,0,1-.6-2.65l7-10.38a1.78,1.78,0,0,1,2.65-.6A2,2,0,0,1,283.74,51.5Z"/></g></g></svg>